<svg width="1200" height="760" viewBox="0 0 1200 760" fill="none" xmlns="http://www.w3.org/2000/svg">
  <rect width="1200" height="760" rx="24" fill="#08101F"/>
  <rect x="24" y="24" width="1152" height="712" rx="20" stroke="#334155"/>
  <text x="60" y="82" fill="#EAF2FF" font-size="34" font-family="Inter, Arial, sans-serif" font-weight="700">Detection Engineering Pipeline</text>
  <text x="60" y="116" fill="#9FB2D9" font-size="18" font-family="Inter, Arial, sans-serif">Telemetry collection, alert development, validation, and analyst response</text>

  <rect x="60" y="220" width="180" height="110" rx="16" fill="#12213A" stroke="#60A5FA"/>
  <text x="99" y="260" fill="#F8FBFF" font-size="24" font-family="Inter, Arial, sans-serif" font-weight="700">Endpoint</text>
  <text x="93" y="290" fill="#AAB8D8" font-size="16" font-family="Inter, Arial, sans-serif">Windows + Sysmon</text>

  <rect x="290" y="220" width="200" height="110" rx="16" fill="#10253D" stroke="#2DD4BF"/>
  <text x="342" y="260" fill="#F8FBFF" font-size="24" font-family="Inter, Arial, sans-serif" font-weight="700">Wazuh</text>
  <text x="325" y="290" fill="#AAB8D8" font-size="16" font-family="Inter, Arial, sans-serif">Normalize + ingest</text>

  <rect x="540" y="220" width="220" height="110" rx="16" fill="#12213A" stroke="#8B5CF6"/>
  <text x="579" y="260" fill="#F8FBFF" font-size="24" font-family="Inter, Arial, sans-serif" font-weight="700">Custom Rules</text>
  <text x="567" y="290" fill="#AAB8D8" font-size="16" font-family="Inter, Arial, sans-serif">PowerShell, SMB, tasks</text>

  <rect x="810" y="220" width="170" height="110" rx="16" fill="#10253D" stroke="#60A5FA"/>
  <text x="848" y="260" fill="#F8FBFF" font-size="24" font-family="Inter, Arial, sans-serif" font-weight="700">Alert</text>
  <text x="831" y="290" fill="#AAB8D8" font-size="16" font-family="Inter, Arial, sans-serif">Signal generated</text>

  <rect x="60" y="450" width="210" height="110" rx="16" fill="#0F1D34" stroke="#64748B"/>
  <text x="104" y="489" fill="#F8FBFF" font-size="22" font-family="Inter, Arial, sans-serif" font-weight="700">Atomic Red Team</text>
  <text x="103" y="517" fill="#AAB8D8" font-size="16" font-family="Inter, Arial, sans-serif">Validation activity</text>

  <rect x="340" y="450" width="220" height="110" rx="16" fill="#0F1D34" stroke="#64748B"/>
  <text x="383" y="489" fill="#F8FBFF" font-size="22" font-family="Inter, Arial, sans-serif" font-weight="700">Analyst Triage</text>
  <text x="384" y="517" fill="#AAB8D8" font-size="16" font-family="Inter, Arial, sans-serif">Review and context</text>

  <rect x="630" y="450" width="220" height="110" rx="16" fill="#0F1D34" stroke="#64748B"/>
  <text x="667" y="489" fill="#F8FBFF" font-size="22" font-family="Inter, Arial, sans-serif" font-weight="700">Tuning</text>
  <text x="667" y="517" fill="#AAB8D8" font-size="16" font-family="Inter, Arial, sans-serif">Reduce noise, improve logic</text>

  <rect x="920" y="450" width="200" height="110" rx="16" fill="#0F1D34" stroke="#64748B"/>
  <text x="965" y="489" fill="#F8FBFF" font-size="22" font-family="Inter, Arial, sans-serif" font-weight="700">Response</text>
  <text x="951" y="517" fill="#AAB8D8" font-size="16" font-family="Inter, Arial, sans-serif">Document and act</text>

  <path d="M240 275H290" stroke="#60A5FA" stroke-width="4" stroke-linecap="round"/>
  <path d="M490 275H540" stroke="#2DD4BF" stroke-width="4" stroke-linecap="round"/>
  <path d="M760 275H810" stroke="#8B5CF6" stroke-width="4" stroke-linecap="round"/>
  <path d="M165 450V388H895V330" stroke="#FBBF24" stroke-width="3" stroke-dasharray="10 10" stroke-linecap="round"/>
  <path d="M450 450V388H895V330" stroke="#2DD4BF" stroke-width="3" stroke-dasharray="10 10" stroke-linecap="round"/>
  <path d="M740 450V388H895V330" stroke="#60A5FA" stroke-width="3" stroke-dasharray="10 10" stroke-linecap="round"/>
  <path d="M980 450V388H895V330" stroke="#8B5CF6" stroke-width="3" stroke-dasharray="10 10" stroke-linecap="round"/>

  <rect x="60" y="610" width="1060" height="84" rx="16" fill="#0C162A" stroke="#23324D"/>
  <text x="90" y="660" fill="#AAB8D8" font-size="18" font-family="Inter, Arial, sans-serif">Validated against realistic test activity and tuned for signal quality — directly relevant to entry detection engineering and SOC workflows.</text>
</svg>