<svg width="1200" height="760" viewBox="0 0 1200 760" fill="none" xmlns="http://www.w3.org/2000/svg">
  <rect width="1200" height="760" rx="24" fill="#08101F"/>
  <rect x="24" y="24" width="1152" height="712" rx="20" stroke="#334155"/>
  <text x="60" y="82" fill="#EAF2FF" font-size="34" font-family="Inter, Arial, sans-serif" font-weight="700">Enterprise Cybersecurity Home Lab</text>
  <text x="60" y="116" fill="#9FB2D9" font-size="18" font-family="Inter, Arial, sans-serif">VMware-based environment for monitoring, hardening, detection, and validation</text>

  <rect x="60" y="170" width="170" height="96" rx="14" fill="#12213A" stroke="#60A5FA"/>
  <text x="88" y="208" fill="#F8FBFF" font-size="24" font-family="Inter, Arial, sans-serif" font-weight="700">Internet</text>
  <text x="88" y="235" fill="#AAB8D8" font-size="16" font-family="Inter, Arial, sans-serif">External traffic</text>

  <rect x="290" y="170" width="200" height="96" rx="14" fill="#10253D" stroke="#2DD4BF"/>
  <text x="324" y="206" fill="#F8FBFF" font-size="24" font-family="Inter, Arial, sans-serif" font-weight="700">pfSense</text>
  <text x="324" y="234" fill="#AAB8D8" font-size="16" font-family="Inter, Arial, sans-serif">Firewall / Router</text>

  <rect x="560" y="170" width="250" height="96" rx="14" fill="#12213A" stroke="#60A5FA"/>
  <text x="590" y="206" fill="#F8FBFF" font-size="24" font-family="Inter, Arial, sans-serif" font-weight="700">Splunk SIEM</text>
  <text x="590" y="234" fill="#AAB8D8" font-size="16" font-family="Inter, Arial, sans-serif">Search, dashboards, triage</text>

  <rect x="870" y="170" width="250" height="96" rx="14" fill="#12213A" stroke="#8B5CF6"/>
  <text x="900" y="206" fill="#F8FBFF" font-size="24" font-family="Inter, Arial, sans-serif" font-weight="700">Wazuh</text>
  <text x="900" y="234" fill="#AAB8D8" font-size="16" font-family="Inter, Arial, sans-serif">Host monitoring + alerts</text>

  <rect x="110" y="360" width="210" height="110" rx="14" fill="#0F1D34" stroke="#64748B"/>
  <text x="138" y="400" fill="#F8FBFF" font-size="22" font-family="Inter, Arial, sans-serif" font-weight="700">Domain Controller</text>
  <text x="138" y="430" fill="#AAB8D8" font-size="16" font-family="Inter, Arial, sans-serif">Active Directory</text>
  <text x="138" y="452" fill="#AAB8D8" font-size="16" font-family="Inter, Arial, sans-serif">Authentication + policy</text>

  <rect x="370" y="360" width="180" height="110" rx="14" fill="#0F1D34" stroke="#64748B"/>
  <text x="412" y="400" fill="#F8FBFF" font-size="22" font-family="Inter, Arial, sans-serif" font-weight="700">Win Client 1</text>
  <text x="412" y="430" fill="#AAB8D8" font-size="16" font-family="Inter, Arial, sans-serif">Sysmon logs</text>

  <rect x="600" y="360" width="180" height="110" rx="14" fill="#0F1D34" stroke="#64748B"/>
  <text x="642" y="400" fill="#F8FBFF" font-size="22" font-family="Inter, Arial, sans-serif" font-weight="700">Win Client 2</text>
  <text x="642" y="430" fill="#AAB8D8" font-size="16" font-family="Inter, Arial, sans-serif">Admin / test host</text>

  <rect x="830" y="360" width="220" height="110" rx="14" fill="#0F1D34" stroke="#64748B"/>
  <text x="865" y="400" fill="#F8FBFF" font-size="22" font-family="Inter, Arial, sans-serif" font-weight="700">Linux System</text>
  <text x="865" y="430" fill="#AAB8D8" font-size="16" font-family="Inter, Arial, sans-serif">Admin and tooling host</text>

  <path d="M230 218H290" stroke="#60A5FA" stroke-width="4" stroke-linecap="round"/>
  <path d="M490 218H560" stroke="#2DD4BF" stroke-width="4" stroke-linecap="round"/>
  <path d="M810 218H870" stroke="#8B5CF6" stroke-width="4" stroke-linecap="round"/>

  <path d="M390 266V320H215V360" stroke="#60A5FA" stroke-width="4" stroke-linecap="round" stroke-linejoin="round"/>
  <path d="M390 266V320H460V360" stroke="#60A5FA" stroke-width="4" stroke-linecap="round" stroke-linejoin="round"/>
  <path d="M390 266V320H690V360" stroke="#60A5FA" stroke-width="4" stroke-linecap="round" stroke-linejoin="round"/>
  <path d="M390 266V320H940V360" stroke="#60A5FA" stroke-width="4" stroke-linecap="round" stroke-linejoin="round"/>

  <path d="M215 470V544H685V266" stroke="#2DD4BF" stroke-width="3" stroke-dasharray="10 10" stroke-linecap="round"/>
  <path d="M460 470V515H995V266" stroke="#8B5CF6" stroke-width="3" stroke-dasharray="10 10" stroke-linecap="round"/>
  <path d="M690 470V520H995V266" stroke="#8B5CF6" stroke-width="3" stroke-dasharray="10 10" stroke-linecap="round"/>

  <rect x="60" y="560" width="1080" height="120" rx="16" fill="#0C162A" stroke="#23324D"/>
  <text x="90" y="602" fill="#F8FBFF" font-size="22" font-family="Inter, Arial, sans-serif" font-weight="700">Business relevance</text>
  <text x="90" y="635" fill="#AAB8D8" font-size="18" font-family="Inter, Arial, sans-serif">Demonstrates visibility across endpoints, centralized logging, network segmentation, and repeatable validation of defensive controls.</text>
</svg>